 <svg width="100%" height="100%" viewBox="0 0 2000 1400" xmlns="http://www.w3.org/2000/svg" > <defs> <filter id="blur-filter" x="-200%" y="-200%" width="500%" height="500%"> <feGaussianBlur in="SourceGraphic" stdDeviation="20" /> </filter> <filter id="blur-filter-sm" x="-100%" y="-100%" width="300%" height="300%"> <feGaussianBlur in="SourceGraphic" stdDeviation="10" /> </filter> </defs> <g transform="rotate(0 1000 1400)"> <rect x="0" y="0" width="2000" height="1400" stroke="none" strokeWidth="0" fill="#100124" /> </g> <ellipse cx="56.935755931769535" cy="127.84040792608202" rx="3.49108033035733" ry="3.4616122489863153" fill="#ffffff" opacity="1" filter="url(#blur-filter-sm)" /> <ellipse cx="56.935755931769535" cy="127.84040792608202" rx="1.9295911803357821" ry="1.7308061244931576" fill="#ffffff" opacity="0.6114499534362254" /> <ellipse cx="267.7611934165694" cy="78.8588042107568" rx="3.4908356155078444" ry="3.3504441774645612" fill="#ffffff" opacity="0.32835057458142136" filter="url(#blur-filter-sm)" /> <ellipse cx="267.7611934165694" cy="78.8588042107568" rx="1.8168496769771854" ry="1.6752220887322806" fill="#ffffff" opacity="0.32835057458142136" /> <ellipse cx="459.33283577533325" cy="126.75496735213991" rx="3.3968946112074474" ry="2.9634804347548007" fill="#ffffff" opacity="1" filter="url(#blur-filter-sm)" /> <ellipse cx="459.33283577533325" cy="126.75496735213991" rx="1.8742833205159597" ry="1.4817402173774004" fill="#ffffff" opacity="0.5410216640485095" /> <ellipse cx="762.8950913492677" cy="75.65412975129406" rx="2.8683881796094104" ry="2.4821327695430324" fill="#ffffff" opacity="0.14834332255159538" filter="url(#blur-filter-sm)" /> <ellipse cx="762.8950913492677" cy="75.65412975129406" rx="1.741042365854443" ry="1.2410663847715162" fill="#ffffff" opacity="0.14834332255159538" /> <ellipse cx="863.1655192869953" cy="97.34251574182147" rx="3.407589709056396" ry="2.987960963803038" fill="#ffffff" opacity="0.08660533602893294" filter="url(#blur-filter-sm)" /> <ellipse cx="863.1655192869953" cy="97.34251574182147" rx="1.9390333616346092" ry="1.493980481901519" fill="#ffffff" opacity="0.08660533602893294" /> <ellipse cx="1134.0027059849538" cy="64.12647294864196" rx="3.1048947213323483" ry="2.8302201521593844" fill="#ffffff" opacity="1" filter="url(#blur-filter-sm)" /> <ellipse cx="1134.0027059849538" cy="64.12647294864196" rx="1.796041641137099" ry="1.4151100760796922" fill="#ffffff" opacity="0.8264414217360502" /> <ellipse cx="1242.939571647775" cy="106.09317690881174" rx="3.8016338617408953" ry="3.7887149043278407" fill="#ffffff" opacity="0.1528569566566278" filter="url(#blur-filter-sm)" /> <ellipse cx="1242.939571647775" cy="106.09317690881174" rx="2.1236287204129085" ry="1.8943574521639204" fill="#ffffff" opacity="0.1528569566566278" /> <ellipse cx="1489.9731224972497" cy="123.44107127193713" rx="4.3629631126500215" ry="3.9109147545330005" fill="#ffffff" opacity="0.03907122968685355" filter="url(#blur-filter-sm)" /> <ellipse cx="1489.9731224972497" cy="123.44107127193713" rx="2.29096624354385" ry="1.9554573772665003" fill="#ffffff" opacity="0.03907122968685355" /> <ellipse cx="1719.2095601332373" cy="39.28129140352453" rx="4.062789209458526" ry="3.962173257411073" fill="#ffffff" opacity="-0.21883727535176126" filter="url(#blur-filter-sm)" /> <ellipse cx="1719.2095601332373" cy="39.28129140352453" rx="2.2131156938237426" ry="1.9810866287055364" fill="#ffffff" opacity="-0.21883727535176126" /> <ellipse cx="1909.3313961907602" cy="56.714262000884965" rx="2.9249138316703203" ry="2.8726447857618864" fill="#ffffff" opacity="1" filter="url(#blur-filter-sm)" /> <ellipse cx="1909.3313961907602" cy="56.714262000884965" rx="1.4392571740035245" ry="1.4363223928809432" fill="#ffffff" opacity="0.6672831034343242" /> <ellipse cx="198.7662312535181" cy="225.2661572287185" rx="4.159755485854566" ry="3.895712993251242" fill="#ffffff" opacity="0.2300783966195727" filter="url(#blur-filter-sm)" /> <ellipse cx="198.7662312535181" cy="225.2661572287185" rx="2.148661390333341" ry="1.947856496625621" fill="#ffffff" opacity="0.2300783966195727" /> <ellipse cx="218.39087273677126" cy="220.3911429640509" rx="2.7153353617388305" ry="2.3985425751065907" fill="#ffffff" opacity="0.4505493991490968" filter="url(#blur-filter-sm)" /> <ellipse cx="218.39087273677126" cy="220.3911429640509" rx="1.4851416615991018" ry="1.1992712875532954" fill="#ffffff" opacity="0.4505493991490968" /> <ellipse cx="503.1778785185607" cy="262.3996935231409" rx="2.666236345787943" ry="2.3410230729744153" fill="#ffffff" opacity="1" filter="url(#blur-filter-sm)" /> <ellipse cx="503.1778785185607" cy="262.3996935231409" rx="1.5456017362858365" ry="1.1705115364872076" fill="#ffffff" opacity="0.7959328065213671" /> <ellipse cx="671.6763433229012" cy="150.29799777859373" rx="3.728914417272718" ry="3.585835579399955" fill="#ffffff" opacity="0.08352168052516026" filter="url(#blur-filter-sm)" /> <ellipse cx="671.6763433229012" cy="150.29799777859373" rx="1.8603275810422226" ry="1.7929177896999775" fill="#ffffff" opacity="0.08352168052516026" /> <ellipse cx="891.4065559679373" cy="249.9024438128652" rx="3.9663621136080596" ry="3.803687895799594" fill="#ffffff" opacity="1" filter="url(#blur-filter-sm)" /> <ellipse cx="891.4065559679373" cy="249.9024438128652" rx="2.135221926782359" ry="1.901843947899797" fill="#ffffff" opacity="0.6466164960243904" /> <ellipse cx="1179.5054317496883" cy="279.4268787482228" rx="3.227799946983638" ry="2.913201913077966" fill="#ffffff" opacity="0.0556511648074257" filter="url(#blur-filter-sm)" /> <ellipse cx="1179.5054317496883" cy="279.4268787482228" rx="1.843578633729443" ry="1.456600956538983" fill="#ffffff" opacity="0.0556511648074257" /> <ellipse cx="1218.4277751271861" cy="242.13490192390913" rx="3.026964346795143" ry="2.5711686353060386" fill="#ffffff" opacity="-0.20608574247801176" filter="url(#blur-filter-sm)" /> <ellipse cx="1218.4277751271861" cy="242.13490192390913" rx="1.3541068611458835" ry="1.2855843176530193" fill="#ffffff" opacity="-0.20608574247801176" /> <ellipse cx="1441.4403794725758" cy="212.01861924143836" rx="3.9138917368098154" ry="3.4927072615047954" fill="#ffffff" opacity="-0.0023464920265086064" filter="url(#blur-filter-sm)" /> <ellipse cx="1441.4403794725758" cy="212.01861924143836" rx="1.8211317887345753" ry="1.7463536307523977" fill="#ffffff" opacity="-0.0023464920265086064" /> <ellipse cx="1748.6101554682698" cy="212.33401732471916" rx="3.9338620570298666" ry="3.637119274531977" fill="#ffffff" opacity="0.11098138113813483" filter="url(#blur-filter-sm)" /> <ellipse cx="1748.6101554682698" cy="212.33401732471916" rx="1.9325894312674836" ry="1.8185596372659885" fill="#ffffff" opacity="0.11098138113813483" /> <ellipse cx="1927.2478145179066" cy="181.87688986593625" rx="2.7426012919041107" ry="2.440565547060931" fill="#ffffff" opacity="1" filter="url(#blur-filter-sm)" /> <ellipse cx="1927.2478145179066" cy="181.87688986593625" rx="1.3639099354556357" ry="1.2202827735304655" fill="#ffffff" opacity="0.6458503246072463" /> <ellipse cx="71.4652279309222" cy="348.8599037479959" rx="3.44678933073348" ry="3.368664631283542" fill="#ffffff" opacity="0.25391509485995495" filter="url(#blur-filter-sm)" /> <ellipse cx="71.4652279309222" cy="348.8599037479959" rx="1.8913863278177634" ry="1.684332315641771" fill="#ffffff" opacity="0.25391509485995495" /> <ellipse cx="363.3326679545116" cy="414.6479282520588" rx="3.682953325169103" ry="3.2148360576026667" fill="#ffffff" opacity="0.37186264125465673" filter="url(#blur-filter-sm)" /> <ellipse cx="363.3326679545116" cy="414.6479282520588" rx="1.7260289045769803" ry="1.6074180288013333" fill="#ffffff" opacity="0.37186264125465673" /> <ellipse cx="593.8971753183502" cy="344.85521368597364" rx="4.418559751219479" ry="3.9354823763505156" fill="#ffffff" opacity="1" filter="url(#blur-filter-sm)" /> <ellipse cx="593.8971753183502" cy="344.85521368597364" rx="2.0168951181614774" ry="1.9677411881752578" fill="#ffffff" opacity="0.6817002050644632" /> <ellipse cx="671.143106713538" cy="328.0840263423666" rx="2.8287518099410858" ry="2.371649775125713" fill="#ffffff" opacity="0.31696202104229765" filter="url(#blur-filter-sm)" /> <ellipse cx="671.143106713538" cy="328.0840263423666" rx="1.3358722217723333" ry="1.1858248875628565" fill="#ffffff" opacity="0.31696202104229765" /> <ellipse cx="804.6504148919153" cy="361.74826658010517" rx="2.278793943434449" ry="2.101252701590969" fill="#ffffff" opacity="-0.07577730148308573" filter="url(#blur-filter-sm)" /> <ellipse cx="804.6504148919153" cy="361.74826658010517" rx="1.177854675845822" ry="1.0506263507954845" fill="#ffffff" opacity="-0.07577730148308573" /> <ellipse cx="1199.2499967519193" cy="389.5452059761235" rx="3.7027343028842616" ry="3.4706789362053123" fill="#ffffff" opacity="1" filter="url(#blur-filter-sm)" /> <ellipse cx="1199.2499967519193" cy="389.5452059761235" rx="1.7528732328210284" ry="1.7353394681026562" fill="#ffffff" opacity="0.6586106679318928" /> <ellipse cx="1339.9148775056442" cy="390.53172712899067" rx="2.4983491862144556" ry="2.2306314451247697" fill="#ffffff" opacity="-0.26530088363327736" filter="url(#blur-filter-sm)" /> <ellipse cx="1339.9148775056442" cy="390.53172712899067" rx="1.2412906657039835" ry="1.1153157225623849" fill="#ffffff" opacity="-0.26530088363327736" /> <ellipse cx="1414.1829619944842" cy="339.30909565516936" rx="3.837893020363749" ry="3.4229049165354426" fill="#ffffff" opacity="0.04577848440678875" filter="url(#blur-filter-sm)" /> <ellipse cx="1414.1829619944842" cy="339.30909565516936" rx="1.8031571427330984" ry="1.7114524582677213" fill="#ffffff" opacity="0.04577848440678875" /> <ellipse cx="1654.8132113494091" cy="284.68543121369794" rx="3.9822663268696723" ry="3.7539862824882038" fill="#ffffff" opacity="-0.10952978275875758" filter="url(#blur-filter-sm)" /> <ellipse cx="1654.8132113494091" cy="284.68543121369794" rx="2.3588182179444073" ry="1.8769931412441019" fill="#ffffff" opacity="-0.10952978275875758" /> <ellipse cx="1905.068169640158" cy="391.7798921602285" rx="4.046153501866635" ry="3.6508703492181405" fill="#ffffff" opacity="0.17032154296138496" filter="url(#blur-filter-sm)" /> <ellipse cx="1905.068169640158" cy="391.7798921602285" rx="2.1670842728741087" ry="1.8254351746090702" fill="#ffffff" opacity="0.17032154296138496" /> <ellipse cx="119.6784855537135" cy="498.5709904486914" rx="3.3033896201349098" ry="3.241367705607054" fill="#ffffff" opacity="1" filter="url(#blur-filter-sm)" /> <ellipse cx="119.6784855537135" cy="498.5709904486914" rx="1.787968450564844" ry="1.620683852803527" fill="#ffffff" opacity="0.6659086665779683" /> <ellipse cx="286.7732407009121" cy="506.60836334173075" rx="3.8880270817183282" ry="3.4911897923464275" fill="#ffffff" opacity="0.07036542205683602" filter="url(#blur-filter-sm)" /> <ellipse cx="286.7732407009121" cy="506.60836334173075" rx="2.216724761739662" ry="1.7455948961732137" fill="#ffffff" opacity="0.07036542205683602" /> <ellipse cx="560.017431793463" cy="454.9129285648976" rx="2.711796707415967" ry="2.6918996978417384" fill="#ffffff" opacity="0.40016258350807604" filter="url(#blur-filter-sm)" /> <ellipse cx="560.017431793463" cy="454.9129285648976" rx="1.7788836896091182" ry="1.3459498489208692" fill="#ffffff" opacity="0.40016258350807604" /> <ellipse cx="763.1073262993" cy="434.7619197190949" rx="3.6918753212370614" ry="3.2418685749167997" fill="#ffffff" opacity="1" filter="url(#blur-filter-sm)" /> <ellipse cx="763.1073262993" cy="434.7619197190949" rx="1.9579798275636497" ry="1.6209342874583998" fill="#ffffff" opacity="0.9153952426947667" /> <ellipse cx="932.779860879442" cy="487.6795704196871" rx="2.379825318200783" ry="2.2006854522221393" fill="#ffffff" opacity="0.20495665630991267" filter="url(#blur-filter-sm)" /> <ellipse cx="932.779860879442" cy="487.6795704196871" rx="1.2589617171983671" ry="1.1003427261110696" fill="#ffffff" opacity="0.20495665630991267" /> <ellipse cx="1085.8314450046744" cy="435.1479911644329" rx="2.774084089325407" ry="2.7381389514364347" fill="#ffffff" opacity="0.2801931718819284" filter="url(#blur-filter-sm)" /> <ellipse cx="1085.8314450046744" cy="435.1479911644329" rx="1.832919713469156" ry="1.3690694757182174" fill="#ffffff" opacity="0.2801931718819284" /> <ellipse cx="1375.100278580261" cy="538.9273038298732" rx="2.9100391113339046" ry="2.625923254793041" fill="#ffffff" opacity="1" filter="url(#blur-filter-sm)" /> <ellipse cx="1375.100278580261" cy="538.9273038298732" rx="1.513492970341495" ry="1.3129616273965206" fill="#ffffff" opacity="0.5990952711931727" /> <ellipse cx="1465.472535607346" cy="432.75778631364545" rx="2.4432724096187926" ry="2.1455636827591693" fill="#ffffff" opacity="0.12381373938115177" filter="url(#blur-filter-sm)" /> <ellipse cx="1465.472535607346" cy="432.75778631364545" rx="1.3792824602216962" ry="1.0727818413795847" fill="#ffffff" opacity="0.12381373938115177" /> <ellipse cx="1683.5937844050832" cy="538.9808726743429" rx="3.6724247745056267" ry="3.5111644727370366" fill="#ffffff" opacity="0.11706016680146687" filter="url(#blur-filter-sm)" /> <ellipse cx="1683.5937844050832" cy="538.9808726743429" rx="1.9283901560516905" ry="1.7555822363685183" fill="#ffffff" opacity="0.11706016680146687" /> <ellipse cx="1906.4416043823326" cy="505.84163854198954" rx="3.6442194026556884" ry="3.148973353065219" fill="#ffffff" opacity="1" filter="url(#blur-filter-sm)" /> <ellipse cx="1906.4416043823326" cy="505.84163854198954" rx="1.7151861913104023" ry="1.5744866765326095" fill="#ffffff" opacity="0.5477433069523558" /> <ellipse cx="27.78486362305714" cy="645.3894152685306" rx="3.4607243770085825" ry="3.141957563928368" fill="#ffffff" opacity="1" filter="url(#blur-filter-sm)" /> <ellipse cx="27.78486362305714" cy="645.3894152685306" rx="1.658874301092002" ry="1.570978781964184" fill="#ffffff" opacity="0.5386789083584238" /> <ellipse cx="207.60976877177973" cy="672.0780805989541" rx="2.7551361945072097" ry="2.5883990657603686" fill="#ffffff" opacity="1" filter="url(#blur-filter-sm)" /> <ellipse cx="207.60976877177973" cy="672.0780805989541" rx="1.3246936904714675" ry="1.2941995328801843" fill="#ffffff" opacity="0.9378625599265873" /> <ellipse cx="573.6715169954758" cy="572.2375070762255" rx="3.6780879483449542" ry="3.1859119831631393" fill="#ffffff" opacity="1" filter="url(#blur-filter-sm)" /> <ellipse cx="573.6715169954758" cy="572.2375070762255" rx="1.6353267564732223" ry="1.5929559915815696" fill="#ffffff" opacity="0.6862761058755045" /> <ellipse cx="791.7344771920651" cy="669.8127533507521" rx="2.3129825294615807" ry="2.2369501925535675" fill="#ffffff" opacity="0.32114588626448676" filter="url(#blur-filter-sm)" /> <ellipse cx="791.7344771920651" cy="669.8127533507521" rx="1.1970639434687067" ry="1.1184750962767838" fill="#ffffff" opacity="0.32114588626448676" /> <ellipse cx="903.6132750700034" cy="580.8933587909412" rx="3.8881128253816275" ry="3.5085974668124345" fill="#ffffff" opacity="1" filter="url(#blur-filter-sm)" /> <ellipse cx="903.6132750700034" cy="580.8933587909412" rx="2.1484569651059244" ry="1.7542987334062172" fill="#ffffff" opacity="0.7544439827221886" /> <ellipse cx="1088.2010195564765" cy="649.1620694844665" rx="4.371075818273575" ry="3.8975353548799707" fill="#ffffff" opacity="1" filter="url(#blur-filter-sm)" /> <ellipse cx="1088.2010195564765" cy="649.1620694844665" rx="1.9789811563723436" ry="1.9487676774399854" fill="#ffffff" opacity="0.5963654418982441" /> <ellipse cx="1326.1329228810002" cy="645.8785440889444" rx="2.5623847654776366" ry="2.221936732602316" fill="#ffffff" opacity="-0.002937169685443719" filter="url(#blur-filter-sm)" /> <ellipse cx="1326.1329228810002" cy="645.8785440889444" rx="1.5690350888254712" ry="1.110968366301158" fill="#ffffff" opacity="-0.002937169685443719" /> <ellipse cx="1593.5698747706908" cy="577.3201685750697" rx="2.2454102220103462" ry="2.0380518256633673" fill="#ffffff" opacity="1" filter="url(#blur-filter-sm)" /> <ellipse cx="1593.5698747706908" cy="577.3201685750697" rx="1.4025005639294126" ry="1.0190259128316836" fill="#ffffff" opacity="0.5263796396960415" /> <ellipse cx="1642.3148758913264" cy="665.900007945628" rx="3.4766702988499985" ry="3.000433556279808" fill="#ffffff" opacity="0.21780508856616743" filter="url(#blur-filter-sm)" /> <ellipse cx="1642.3148758913264" cy="665.900007945628" rx="1.700902880199057" ry="1.500216778139904" fill="#ffffff" opacity="0.21780508856616743" /> <ellipse cx="1875.4909135974106" cy="593.2219624386278" rx="2.8678351194334226" ry="2.563515205162192" fill="#ffffff" opacity="0.16696012551455283" filter="url(#blur-filter-sm)" /> <ellipse cx="1875.4909135974106" cy="593.2219624386278" rx="1.5921449338803733" ry="1.281757602581096" fill="#ffffff" opacity="0.16696012551455283" /> <ellipse cx="52.169584005192206" cy="832.3118463076321" rx="4.169269084545335" ry="3.8587900091495193" fill="#ffffff" opacity="0.08541896294151052" filter="url(#blur-filter-sm)" /> <ellipse cx="52.169584005192206" cy="832.3118463076321" rx="2.1006134083517085" ry="1.9293950045747597" fill="#ffffff" opacity="0.08541896294151052" /> <ellipse cx="382.0712499070555" cy="789.6324642931984" rx="2.6682122097832095" ry="2.208918407875277" fill="#ffffff" opacity="0.21995847516214134" filter="url(#blur-filter-sm)" /> <ellipse cx="382.0712499070555" cy="789.6324642931984" rx="1.5989479230248995" ry="1.1044592039376384" fill="#ffffff" opacity="0.21995847516214134" /> <ellipse cx="584.7418945687527" cy="742.8055572142337" rx="2.932575126156654" ry="2.688417429233641" fill="#ffffff" opacity="0.3919785994874017" filter="url(#blur-filter-sm)" /> <ellipse cx="584.7418945687527" cy="742.8055572142337" rx="1.6437584572793011" ry="1.3442087146168205" fill="#ffffff" opacity="0.3919785994874017" /> <ellipse cx="722.6362493617598" cy="742.2390478152711" rx="3.745587770612336" ry="3.460794548733158" fill="#ffffff" opacity="1" filter="url(#blur-filter-sm)" /> <ellipse cx="722.6362493617598" cy="742.2390478152711" rx="2.1066276286804846" ry="1.730397274366579" fill="#ffffff" opacity="0.5018681959219164" /> <ellipse cx="908.9760751206205" cy="750.0533887303245" rx="3.383581565011983" ry="3.186633176257657" fill="#ffffff" opacity="1" filter="url(#blur-filter-sm)" /> <ellipse cx="908.9760751206205" cy="750.0533887303245" rx="1.8640395421186913" ry="1.5933165881288285" fill="#ffffff" opacity="0.6090545782842873" /> <ellipse cx="1195.7312885032597" cy="704.6000168604448" rx="3.3667335460143137" ry="3.2919641358276155" fill="#ffffff" opacity="1" filter="url(#blur-filter-sm)" /> <ellipse cx="1195.7312885032597" cy="704.6000168604448" rx="1.6814628990213958" ry="1.6459820679138077" fill="#ffffff" opacity="0.8946057235086647" /> <ellipse cx="1359.9492490050868" cy="801.5239702304069" rx="3.3159102344010707" ry="3.078117129303763" fill="#ffffff" opacity="-0.031902298912698066" filter="url(#blur-filter-sm)" /> <ellipse cx="1359.9492490050868" cy="801.5239702304069" rx="1.808810071162572" ry="1.5390585646518815" fill="#ffffff" opacity="-0.031902298912698066" /> <ellipse cx="1496.8937481793469" cy="830.9439376041794" rx="2.4664683824580376" ry="2.2230893522242705" fill="#ffffff" opacity="0.39618195060602207" filter="url(#blur-filter-sm)" /> <ellipse cx="1496.8937481793469" cy="830.9439376041794" rx="1.460757967739506" ry="1.1115446761121353" fill="#ffffff" opacity="0.39618195060602207" /> <ellipse cx="1770.357204745173" cy="758.4627676980953" rx="2.4316621702530106" ry="2.034317184753471" fill="#ffffff" opacity="1" filter="url(#blur-filter-sm)" /> <ellipse cx="1770.357204745173" cy="758.4627676980953" rx="1.3593584171571558" ry="1.0171585923767354" fill="#ffffff" opacity="0.6059408833508017" /> <ellipse cx="1962.2167453492402" cy="811.0642011165328" rx="4.1967699833829455" ry="3.9299535637152063" fill="#ffffff" opacity="-0.031735022154702225" filter="url(#blur-filter-sm)" /> <ellipse cx="1962.2167453492402" cy="811.0642011165328" rx="2.1886851164959613" ry="1.9649767818576032" fill="#ffffff" opacity="-0.031735022154702225" /> <ellipse cx="127.76230782102158" cy="947.5443035811468" rx="3.9321640390340153" ry="3.655388285223377" fill="#ffffff" opacity="0.40093879014983314" filter="url(#blur-filter-sm)" /> <ellipse cx="127.76230782102158" cy="947.5443035811468" rx="2.1856698586439975" ry="1.8276941426116886" fill="#ffffff" opacity="0.40093879014983314" /> <ellipse cx="223.090308317413" cy="939.9549837226638" rx="2.764956621133787" ry="2.4467734269852994" fill="#ffffff" opacity="0.4788774755061783" filter="url(#blur-filter-sm)" /> <ellipse cx="223.090308317413" cy="939.9549837226638" rx="1.381452854716623" ry="1.2233867134926497" fill="#ffffff" opacity="0.4788774755061783" /> <ellipse cx="461.87982633891573" cy="893.3286646735295" rx="2.854191012269005" ry="2.3844321067523073" fill="#ffffff" opacity="-0.004937317155952248" filter="url(#blur-filter-sm)" /> <ellipse cx="461.87982633891573" cy="893.3286646735295" rx="1.4558260753501249" ry="1.1922160533761537" fill="#ffffff" opacity="-0.004937317155952248" /> <ellipse cx="797.0881320800456" cy="898.7780798669519" rx="2.8776580125796816" ry="2.828720566979505" fill="#ffffff" opacity="1" filter="url(#blur-filter-sm)" /> <ellipse cx="797.0881320800456" cy="898.7780798669519" rx="1.7598306383789528" ry="1.4143602834897524" fill="#ffffff" opacity="0.78327271728327" /> <ellipse cx="940.8368267546033" cy="952.8733032751343" rx="2.8570759769247083" ry="2.5831990693933875" fill="#ffffff" opacity="1" filter="url(#blur-filter-sm)" /> <ellipse cx="940.8368267546033" cy="952.8733032751343" rx="1.4249729448668522" ry="1.2915995346966938" fill="#ffffff" opacity="0.6480218619596119" /> <ellipse cx="1067.2994017694446" cy="893.9733616512037" rx="2.5761691944570435" ry="2.412549972866867" fill="#ffffff" opacity="-0.11684801263847056" filter="url(#blur-filter-sm)" /> <ellipse cx="1067.2994017694446" cy="893.9733616512037" rx="1.5250235658454998" ry="1.2062749864334334" fill="#ffffff" opacity="-0.11684801263847056" /> <ellipse cx="1253.8163598583362" cy="886.0154813081125" rx="3.126591381888732" ry="2.7263885254371663" fill="#ffffff" opacity="0.22592321108503538" filter="url(#blur-filter-sm)" /> <ellipse cx="1253.8163598583362" cy="886.0154813081125" rx="1.844753205554415" ry="1.3631942627185831" fill="#ffffff" opacity="0.22592321108503538" /> <ellipse cx="1528.7003656786912" cy="906.3722628618644" rx="2.8924301699691695" ry="2.8886937314004717" fill="#ffffff" opacity="0.05918811524077026" filter="url(#blur-filter-sm)" /> <ellipse cx="1528.7003656786912" cy="906.3722628618644" rx="1.5492075453191514" ry="1.4443468657002358" fill="#ffffff" opacity="0.05918811524077026" /> <ellipse cx="1661.300503365477" cy="847.9720158053208" rx="2.3058575124248972" ry="2.2470138962203894" fill="#ffffff" opacity="0.22191863491368874" filter="url(#blur-filter-sm)" /> <ellipse cx="1661.300503365477" cy="847.9720158053208" rx="1.2315504527413357" ry="1.1235069481101947" fill="#ffffff" opacity="0.22191863491368874" /> <ellipse cx="1970.2854408852645" cy="934.3134365240677" rx="2.5703244186157717" ry="2.128376578842274" fill="#ffffff" opacity="0.1966928533246148" filter="url(#blur-filter-sm)" /> <ellipse cx="1970.2854408852645" cy="934.3134365240677" rx="1.4568814055535686" ry="1.064188289421137" fill="#ffffff" opacity="0.1966928533246148" /> <ellipse cx="5.612611614534746" cy="1106.3952721952885" rx="3.816068938630892" ry="3.3241055694396655" fill="#ffffff" opacity="0.056117661694397664" filter="url(#blur-filter-sm)" /> <ellipse cx="5.612611614534746" cy="1106.3952721952885" rx="1.766227601650407" ry="1.6620527847198328" fill="#ffffff" opacity="0.056117661694397664" /> <ellipse cx="367.23674940326356" cy="985.817223086371" rx="3.226999251076494" ry="2.9765311780414017" fill="#ffffff" opacity="0.39291854206145865" filter="url(#blur-filter-sm)" /> <ellipse cx="367.23674940326356" cy="985.817223086371" rx="1.6364980916861498" ry="1.4882655890207008" fill="#ffffff" opacity="0.39291854206145865" /> <ellipse cx="511.00873886336194" cy="1045.3124664288334" rx="2.6656397157818796" ry="2.23362490964772" fill="#ffffff" opacity="1" filter="url(#blur-filter-sm)" /> <ellipse cx="511.00873886336194" cy="1045.3124664288334" rx="1.5946913356223686" ry="1.11681245482386" fill="#ffffff" opacity="0.7208061829670929" /> <ellipse cx="785.5563085526525" cy="1069.4857122410795" rx="2.9823366238368503" ry="2.920005377265715" fill="#ffffff" opacity="0.03613034399336201" filter="url(#blur-filter-sm)" /> <ellipse cx="785.5563085526525" cy="1069.4857122410795" rx="1.8116134605200216" ry="1.4600026886328574" fill="#ffffff" opacity="0.03613034399336201" /> <ellipse cx="857.4507160426165" cy="1049.3415557127337" rx="3.178218392520514" ry="3.1657241903771824" fill="#ffffff" opacity="-0.02696602740037446" filter="url(#blur-filter-sm)" /> <ellipse cx="857.4507160426165" cy="1049.3415557127337" rx="1.9380647194268632" ry="1.5828620951885912" fill="#ffffff" opacity="-0.02696602740037446" /> <ellipse cx="1023.018112567275" cy="1052.806442341304" rx="3.953663999987598" ry="3.8191879843808114" fill="#ffffff" opacity="0.2456162831425504" filter="url(#blur-filter-sm)" /> <ellipse cx="1023.018112567275" cy="1052.806442341304" rx="2.316516838372839" ry="1.9095939921904057" fill="#ffffff" opacity="0.2456162831425504" /> <ellipse cx="1383.4668378972588" cy="1025.967916951348" rx="2.1934959282919393" ry="2.158466021125021" fill="#ffffff" opacity="0.1474922045785649" filter="url(#blur-filter-sm)" /> <ellipse cx="1383.4668378972588" cy="1025.967916951348" rx="1.4328873767143977" ry="1.0792330105625105" fill="#ffffff" opacity="0.1474922045785649" /> <ellipse cx="1475.3091693608087" cy="1020.8397394521126" rx="3.4530322054197407" ry="3.1498407664659474" fill="#ffffff" opacity="1" filter="url(#blur-filter-sm)" /> <ellipse cx="1475.3091693608087" cy="1020.8397394521126" rx="1.5942914760154725" ry="1.5749203832329737" fill="#ffffff" opacity="0.8971005394418287" /> <ellipse cx="1757.2334890772506" cy="1080.3945986551387" rx="3.209598686657171" ry="2.8132295820458806" fill="#ffffff" opacity="0.34820185402285175" filter="url(#blur-filter-sm)" /> <ellipse cx="1757.2334890772506" cy="1080.3945986551387" rx="1.5705505084585347" ry="1.4066147910229403" fill="#ffffff" opacity="0.34820185402285175" /> <ellipse cx="1907.3239085454422" cy="1066.1365033122631" rx="3.584408631277122" ry="3.226029761313369" fill="#ffffff" opacity="0.21311886481609657" filter="url(#blur-filter-sm)" /> <ellipse cx="1907.3239085454422" cy="1066.1365033122631" rx="1.7270340999430456" ry="1.6130148806566844" fill="#ffffff" opacity="0.21311886481609657" /> <ellipse cx="160.9840976557192" cy="1224.6076424381997" rx="4.099190665477628" ry="3.8965548309694156" fill="#ffffff" opacity="1" filter="url(#blur-filter-sm)" /> <ellipse cx="160.9840976557192" cy="1224.6076424381997" rx="2.2762717142741478" ry="1.9482774154847078" fill="#ffffff" opacity="0.6966882070961835" /> <ellipse cx="219.10915716445655" cy="1242.179659439054" rx="3.8548092659647466" ry="3.7256453297965564" fill="#ffffff" opacity="0.2325532338594938" filter="url(#blur-filter-sm)" /> <ellipse cx="219.10915716445655" cy="1242.179659439054" rx="2.2831080858415556" ry="1.8628226648982782" fill="#ffffff" opacity="0.2325532338594938" /> <ellipse cx="443.1811830673305" cy="1259.1270101801476" rx="3.6377888270230807" ry="3.485520473707412" fill="#ffffff" opacity="0.17511542511831857" filter="url(#blur-filter-sm)" /> <ellipse cx="443.1811830673305" cy="1259.1270101801476" rx="1.8115748015612385" ry="1.742760236853706" fill="#ffffff" opacity="0.17511542511831857" /> <ellipse cx="745.8178169148541" cy="1248.5802779825804" rx="4.210370496360489" ry="3.9411167295674745" fill="#ffffff" opacity="0.3088369223642762" filter="url(#blur-filter-sm)" /> <ellipse cx="745.8178169148541" cy="1248.5802779825804" rx="2.345715702821056" ry="1.9705583647837372" fill="#ffffff" opacity="0.3088369223642762" /> <ellipse cx="913.4589348043183" cy="1233.610010992092" rx="2.995907337204188" ry="2.6135273129202403" fill="#ffffff" opacity="0.021333588033418394" filter="url(#blur-filter-sm)" /> <ellipse cx="913.4589348043183" cy="1233.610010992092" rx="1.7267191098984416" ry="1.3067636564601202" fill="#ffffff" opacity="0.021333588033418394" /> <ellipse cx="1065.9129915993012" cy="1130.7912618844714" rx="3.641742812094785" ry="3.492023938449467" fill="#ffffff" opacity="0.43502844886211306" filter="url(#blur-filter-sm)" /> <ellipse cx="1065.9129915993012" cy="1130.7912618844714" rx="2.063784257316741" ry="1.7460119692247336" fill="#ffffff" opacity="0.43502844886211306" /> <ellipse cx="1257.556766186314" cy="1152.2499294805152" rx="3.784154007498909" ry="3.636035831867766" fill="#ffffff" opacity="-0.23594242602859017" filter="url(#blur-filter-sm)" /> <ellipse cx="1257.556766186314" cy="1152.2499294805152" rx="2.0177381787149846" ry="1.818017915933883" fill="#ffffff" opacity="-0.23594242602859017" /> <ellipse cx="1555.6927454585593" cy="1207.6659959699864" rx="3.8003206849045146" ry="3.301444472342534" fill="#ffffff" opacity="1" filter="url(#blur-filter-sm)" /> <ellipse cx="1555.6927454585593" cy="1207.6659959699864" rx="2.0835986750858706" ry="1.650722236171267" fill="#ffffff" opacity="0.8782168090765081" /> <ellipse cx="1618.327268032143" cy="1210.1219382096117" rx="3.6068419884227887" ry="3.539398303915708" fill="#ffffff" opacity="-0.06320208960369682" filter="url(#blur-filter-sm)" /> <ellipse cx="1618.327268032143" cy="1210.1219382096117" rx="2.136020439078478" ry="1.769699151957854" fill="#ffffff" opacity="-0.06320208960369682" /> <ellipse cx="1867.1523663775556" cy="1185.6173917219228" rx="4.303198202751958" ry="3.856024697052511" fill="#ffffff" opacity="-0.028157686600566237" filter="url(#blur-filter-sm)" /> <ellipse cx="1867.1523663775556" cy="1185.6173917219228" rx="2.1135808205211797" ry="1.9280123485262555" fill="#ffffff" opacity="-0.028157686600566237" /> <ellipse cx="158.78394367709285" cy="1285.3274837387783" rx="3.2939957472144514" ry="2.921272889253674" fill="#ffffff" opacity="0.170643431697806" filter="url(#blur-filter-sm)" /> <ellipse cx="158.78394367709285" cy="1285.3274837387783" rx="1.5123144952383685" ry="1.460636444626837" fill="#ffffff" opacity="0.170643431697806" /> <ellipse cx="262.93936367574423" cy="1369.630977839277" rx="4.031101611656497" ry="3.5520966931489557" fill="#ffffff" opacity="0.034283218168186025" filter="url(#blur-filter-sm)" /> <ellipse cx="262.93936367574423" cy="1369.630977839277" rx="1.9207995661117276" ry="1.7760483465744779" fill="#ffffff" opacity="0.034283218168186025" /> <ellipse cx="498.192484994739" cy="1359.6727865391144" rx="2.134617974950882" ry="2.040887786855332" fill="#ffffff" opacity="0.16747892439941459" filter="url(#blur-filter-sm)" /> <ellipse cx="498.192484994739" cy="1359.6727865391144" rx="1.4018797593252454" ry="1.020443893427666" fill="#ffffff" opacity="0.16747892439941459" /> <ellipse cx="641.8098555990204" cy="1398.014624981593" rx="3.0249727763465" ry="2.626627699030304" fill="#ffffff" opacity="0.3000559072731156" filter="url(#blur-filter-sm)" /> <ellipse cx="641.8098555990204" cy="1398.014624981593" rx="1.5276742035234967" ry="1.313313849515152" fill="#ffffff" opacity="0.3000559072731156" /> <ellipse cx="981.9785886319908" cy="1392.4136026339518" rx="3.290218435207084" ry="2.8017300333052493" fill="#ffffff" opacity="1" filter="url(#blur-filter-sm)" /> <ellipse cx="981.9785886319908" cy="1392.4136026339518" rx="1.4929638310041877" ry="1.4008650166526246" fill="#ffffff" opacity="0.5850213720495911" /> <ellipse cx="1094.5244105770755" cy="1270.0608510837292" rx="4.120688551488374" ry="3.7318314828041914" fill="#ffffff" opacity="0.3214195817158011" filter="url(#blur-filter-sm)" /> <ellipse cx="1094.5244105770755" cy="1270.0608510837292" rx="2.166219886828445" ry="1.8659157414020957" fill="#ffffff" opacity="0.3214195817158011" /> <ellipse cx="1303.0560291328445" cy="1272.799612767772" rx="2.72863534286858" ry="2.628443901421121" fill="#ffffff" opacity="-0.13817176280413915" filter="url(#blur-filter-sm)" /> <ellipse cx="1303.0560291328445" cy="1272.799612767772" rx="1.535780108600565" ry="1.3142219507105606" fill="#ffffff" opacity="-0.13817176280413915" /> <ellipse cx="1557.098212547859" cy="1285.396539854582" rx="3.6578786859912884" ry="3.6371677433319185" fill="#ffffff" opacity="0.3331581003376408" filter="url(#blur-filter-sm)" /> <ellipse cx="1557.098212547859" cy="1285.396539854582" rx="2.071648703972248" ry="1.8185838716659593" fill="#ffffff" opacity="0.3331581003376408" /> <ellipse cx="1665.58797302743" cy="1299.3709912105164" rx="2.3029259727583633" ry="2.180088046010162" fill="#ffffff" opacity="0.19384259272051219" filter="url(#blur-filter-sm)" /> <ellipse cx="1665.58797302743" cy="1299.3709912105164" rx="1.3373761394302957" ry="1.090044023005081" fill="#ffffff" opacity="0.19384259272051219" /> <ellipse cx="1870.3853143230215" cy="1344.223221614613" rx="2.4278519374283896" ry="2.2362465543300276" fill="#ffffff" opacity="0.4180276483637502" filter="url(#blur-filter-sm)" /> <ellipse cx="1870.3853143230215" cy="1344.223221614613" rx="1.2592388951972378" ry="1.1181232771650138" fill="#ffffff" opacity="0.4180276483637502" /> <g transform="translate(600.9254404881399, 441.86542971943703) rotate(-61.38498020929638)"> <defs> <linearGradient id="comet-gradient" x1="0" y1="1" x2="225.58916262638863" y2="1" gradientUnits="userSpaceOnUse"> <stop stop-color="#b487c7"/> <stop offset="0.3" stop-color="#878ac7" stop-opacity="0.1"/> <stop offset="0.7" stop-color="#878ac7" stop-opacity="0"/> </linearGradient> </defs> <rect width="135.35349757583316" height="6.9" rx="6.9" ry="6.9" fill="url(#comet-gradient)" /> </g> <g transform="translate(1693.5705675929453, 131.7223019961203) rotate(-59.894064650436434)"> <defs> <linearGradient id="comet-gradient" x1="0" y1="1" x2="258.47727055828864" y2="1" gradientUnits="userSpaceOnUse"> <stop stop-color="#b487c7"/> <stop offset="0.3" stop-color="#878ac7" stop-opacity="0.1"/> <stop offset="0.7" stop-color="#878ac7" stop-opacity="0"/> </linearGradient> </defs> <rect width="155.0863623349732" height="6.9" rx="6.9" ry="6.9" fill="url(#comet-gradient)" /> </g> <g transform="translate(506.72845276500686, 903.1253577657102) rotate(-63.93617055942131)"> <defs> <linearGradient id="comet-gradient" x1="0" y1="1" x2="248.07874701187126" y2="1" gradientUnits="userSpaceOnUse"> <stop stop-color="#b487c7"/> <stop offset="0.3" stop-color="#878ac7" stop-opacity="0.1"/> <stop offset="0.7" stop-color="#878ac7" stop-opacity="0"/> </linearGradient> </defs> <rect width="148.84724820712276" height="6.9" rx="6.9" ry="6.9" fill="url(#comet-gradient)" /> </g> <g transform="translate(1690.3521961331503, 715.6332778777117) rotate(-60.70650595755474)"> <defs> <linearGradient id="comet-gradient" x1="0" y1="1" x2="250.54955165154632" y2="1" gradientUnits="userSpaceOnUse"> <stop stop-color="#b487c7"/> <stop offset="0.3" stop-color="#878ac7" stop-opacity="0.1"/> <stop offset="0.7" stop-color="#878ac7" stop-opacity="0"/> </linearGradient> </defs> <rect width="150.3297309909278" height="6.9" rx="6.9" ry="6.9" fill="url(#comet-gradient)" /> </g> </svg>